# xmcd
#
# Track frame offsets: 
#        150
#        8623
#        21740
#        68368
#        96210
#        119005
#        142483
#        170550
#        191495
#        218095
#        238355
#
# Disc length: 3467 seconds
#
# Revision: 0
# Processed by: cddbd v1.5.2PL0 Copyright (c) Steve Scherf et al.
# Submitted via: ExactAudioCopy v1.0b3
#
DISCID=a50d890b
DTITLE=Che Linh - Hon Vong Phu
DYEAR=1991
DGENRE=
TTITLE0=Gioi thieu
TTITLE1=Hon Vong Phu 1
TTITLE2=Hon Vong Phu 2 and 3
TTITLE3=Nhu giot suong mai
TTITLE4=Ai ve song Tuong
TTITLE5=Xom dem
TTITLE6=Con thuyen khong ben
TTITLE7=Xin yeu toi bang tinh nguoi
TTITLE8=Xin con goi ten nhau
TTITLE9=Nang chieu
TTITLE10=Tra lai em yeu
EXTD=
EXTT0=
EXTT1=
EXTT2=
EXTT3=
EXTT4=
EXTT5=
EXTT6=
EXTT7=
EXTT8=
EXTT9=
EXTT10=
PLAYORDER=
